G04 Layer: BottomLayer*
G04 EasyEDA v6.4.17, 2021-03-20T19:28:22--4:00*
G04 7650886d5ba747c7849dacbd900289a7,4cc6b0da07df45819412c628e5a569e9,10*
G04 Gerber Generator version 0.2*
G04 Scale: 100 percent, Rotated: No, Reflected: No *
G04 Dimensions in millimeters *
G04 leading zeros omitted , absolute positions ,4 integer and 5 decimal *
%FSLAX45Y45*%
%MOMM*%

%ADD11C,1.5240*%
%ADD12R,3.4999X3.4999*%
%ADD13C,3.4999*%
%ADD14R,1.7780X1.7780*%
%ADD15C,1.7780*%
%ADD16C,0.5000*%

%LPD*%
D16*
X3060700Y3670300D02*
G01*
X4102100Y2628900D01*
X4102100Y1930400D01*
X4356100Y1676400D01*
X4686300Y1676400D01*
X4838700Y1828800D01*
X4838700Y2958845D01*
X5499100Y3619500D01*
X5499100Y3365500D02*
G01*
X5499100Y2759455D01*
X5286756Y2759455D01*
X4953000Y2425700D01*
X4953000Y1739900D01*
X4775200Y1562100D01*
X4279900Y1562100D01*
X3949700Y1892300D01*
X3949700Y2527300D01*
X3060700Y3416300D01*
X6769100Y4381500D02*
G01*
X7340600Y3810000D01*
X7340600Y2910331D01*
X6527800Y2097531D01*
X6769100Y3619500D02*
G01*
X6972300Y3416300D01*
X6972300Y3276600D01*
X6819900Y3124200D01*
X6616700Y3124200D01*
X5740400Y4000500D01*
X5308600Y4000500D01*
X4826000Y4483100D01*
X4826000Y5270500D01*
X4648200Y5448300D01*
X4584700Y5448300D01*
X6769100Y3873500D02*
G01*
X7124700Y3517900D01*
X7124700Y3149600D01*
X6248400Y2273300D01*
X5473700Y2273300D01*
X5295900Y2095500D01*
X5295900Y1872487D01*
X6769100Y4127500D02*
G01*
X7239000Y3657600D01*
X7239000Y3035300D01*
X6075934Y1872487D01*
X5803900Y1872487D01*
X6769100Y4635500D02*
G01*
X7467600Y3937000D01*
X7467600Y2303271D01*
X7035800Y1872487D01*
X6642100Y4889500D02*
G01*
X6527800Y4889500D01*
X6527800Y3606800D01*
X6769100Y3365500D01*
X2260600Y5613400D02*
G01*
X2654300Y6007100D01*
X5422900Y6007100D01*
X6540500Y4889500D01*
X6642100Y4889500D01*
X5295900Y5000122D02*
G01*
X5295900Y5168900D01*
X4711700Y5753100D01*
X4127500Y5753100D01*
X3746500Y5372100D01*
X3746500Y4864100D01*
X3060700Y4178300D01*
X5499100Y4889500D02*
G01*
X5406522Y4889500D01*
X5295900Y5000122D01*
X3060700Y3924300D02*
G01*
X3213100Y3924300D01*
X3886200Y4597400D01*
X3886200Y5245100D01*
X4254500Y5613400D01*
X4673600Y5613400D01*
X4940300Y5346700D01*
X4940300Y5194300D01*
X5499100Y4635500D01*
X3060700Y4432300D02*
G01*
X3606800Y4978400D01*
X3606800Y5461000D01*
X4038600Y5892800D01*
X4749800Y5892800D01*
X5499100Y5143500D01*
X1905000Y5613400D02*
G01*
X2463800Y6172200D01*
X5740400Y6172200D01*
X6769100Y5143500D01*
X1326387Y5038344D02*
G01*
X1326387Y5314187D01*
X1625600Y5613400D01*
X1905000Y5613400D01*
X1326387Y4305300D02*
G01*
X1727200Y4305300D01*
X2260600Y4838700D01*
X2260600Y5613400D01*
X3060700Y4686300D02*
G01*
X2794000Y4686300D01*
X1727200Y3619500D01*
X1326387Y3619500D01*
X6769100Y4889500D02*
G01*
X6642100Y4889500D01*
X6527800Y1872487D02*
G01*
X6527800Y2097531D01*
X1326387Y4813300D02*
G01*
X1326387Y5038344D01*
X3060700Y2908300D02*
G01*
X2135631Y2908300D01*
X1551431Y2324100D01*
X1326387Y2324100D02*
G01*
X1551431Y2324100D01*
X3060700Y2654300D02*
G01*
X2164588Y2654300D01*
X1326387Y1816100D01*
X3060700Y3162300D02*
G01*
X1377187Y3162300D01*
X1326387Y3111500D01*
D11*
G01*
X6769100Y3365500D03*
G01*
X6769100Y3619500D03*
G01*
X6769100Y3873500D03*
G01*
X6769100Y4127500D03*
G01*
X6769100Y4381500D03*
G01*
X6769100Y4635500D03*
G01*
X6769100Y4889500D03*
G01*
X6769100Y5143500D03*
G01*
X5499100Y5143500D03*
G01*
X5499100Y4889500D03*
G01*
X5499100Y4635500D03*
G01*
X5499100Y4381500D03*
G01*
X5499100Y4127500D03*
G01*
X5499100Y3873500D03*
G01*
X5499100Y3619500D03*
G01*
X5499100Y3365500D03*
G01*
X6007100Y5143500D03*
G01*
X5753100Y5143500D03*
G01*
X5880100Y4965700D03*
G01*
X1905000Y5613400D03*
G01*
X2260600Y5613400D03*
D12*
G01*
X1326311Y4813300D03*
D13*
G01*
X1326286Y4305300D03*
D12*
G01*
X1326311Y2324100D03*
D13*
G01*
X1326286Y1816100D03*
D12*
G01*
X1326311Y3619500D03*
D13*
G01*
X1326286Y3111500D03*
G36*
X5120893Y2047392D02*
G01*
X5470906Y2047392D01*
X5470906Y1697405D01*
X5120893Y1697405D01*
G37*
G01*
X5803900Y1872386D03*
D14*
G01*
X3060700Y5448300D03*
D15*
G01*
X3060700Y5194300D03*
G01*
X3060700Y4940300D03*
G01*
X3060700Y4686300D03*
G01*
X3060700Y4432300D03*
G01*
X3060700Y4178300D03*
G01*
X3060700Y3924300D03*
G01*
X3060700Y3670300D03*
G01*
X3060700Y3416300D03*
G01*
X3060700Y3162300D03*
G01*
X3060700Y2908300D03*
G01*
X3060700Y2654300D03*
G01*
X3060700Y2400300D03*
G01*
X3060700Y2146300D03*
G01*
X3060700Y1892300D03*
G01*
X4584700Y5448300D03*
G01*
X4584700Y5194300D03*
G01*
X4584700Y4940300D03*
G01*
X4584700Y4686300D03*
G01*
X4584700Y4432300D03*
G01*
X4584700Y4178300D03*
G01*
X4584700Y3924300D03*
G01*
X4584700Y3670300D03*
G01*
X4584700Y3416300D03*
G01*
X4584700Y3162300D03*
G01*
X4584700Y2908300D03*
G01*
X4584700Y2654300D03*
G01*
X4584700Y2400300D03*
G01*
X4584700Y2146300D03*
G01*
X4584700Y1892300D03*
G36*
X6352793Y2047392D02*
G01*
X6702806Y2047392D01*
X6702806Y1697405D01*
X6352793Y1697405D01*
G37*
D13*
G01*
X7035800Y1872386D03*
M02*
