G04 Layer: TopSolderMaskLayer*
G04 EasyEDA v6.4.17, 2021-03-20T19:28:22--4:00*
G04 c1a44ab8ea8d4ca0af33d67b0e311efc,4cc6b0da07df45819412c628e5a569e9,10*
G04 Gerber Generator version 0.2*
G04 Scale: 100 percent, Rotated: No, Reflected: No *
G04 Dimensions in millimeters *
G04 leading zeros omitted , absolute positions ,4 integer and 5 decimal *
%FSLAX45Y45*%
%MOMM*%

%ADD19C,1.7272*%
%ADD21C,3.7031*%
%ADD23C,1.9812*%

%LPD*%
D19*
G01*
X5511800Y5232400D03*
G01*
X5511800Y4978400D03*
G01*
X5511800Y4724400D03*
G01*
X5511800Y4470400D03*
G01*
X5511800Y4216400D03*
G01*
X5511800Y3962400D03*
G01*
X5511800Y3708400D03*
G01*
X5511800Y3454400D03*
G01*
X6781800Y3454400D03*
G01*
X6781800Y3708400D03*
G01*
X6781800Y3962400D03*
G01*
X6781800Y4216400D03*
G01*
X6781800Y4470400D03*
G01*
X6781800Y4724400D03*
G01*
X6781800Y4978400D03*
G01*
X6781800Y5232400D03*
G01*
X6273800Y3454400D03*
G01*
X6527800Y3454400D03*
G01*
X6400800Y3632200D03*
G01*
X1905000Y5613400D03*
G01*
X2260600Y5613400D03*
G36*
X1141221Y4628134D02*
G01*
X1141221Y4998465D01*
X1511554Y4998465D01*
X1511554Y4628134D01*
G37*
D21*
G01*
X1326286Y4305300D03*
G36*
X1141221Y2138934D02*
G01*
X1141221Y2509265D01*
X1511554Y2509265D01*
X1511554Y2138934D01*
G37*
G01*
X1326286Y1816100D03*
G36*
X1141221Y3434334D02*
G01*
X1141221Y3804665D01*
X1511554Y3804665D01*
X1511554Y3434334D01*
G37*
G01*
X1326286Y3111500D03*
G36*
X5110734Y1687321D02*
G01*
X5110734Y2057654D01*
X5481065Y2057654D01*
X5481065Y1687321D01*
G37*
G01*
X5803900Y1872386D03*
G36*
X2961640Y5349239D02*
G01*
X2961640Y5547360D01*
X3159759Y5547360D01*
X3159759Y5349239D01*
G37*
D23*
G01*
X3060700Y5194300D03*
G01*
X3060700Y4940300D03*
G01*
X3060700Y4686300D03*
G01*
X3060700Y4432300D03*
G01*
X3060700Y4178300D03*
G01*
X3060700Y3924300D03*
G01*
X3060700Y3670300D03*
G01*
X3060700Y3416300D03*
G01*
X3060700Y3162300D03*
G01*
X3060700Y2908300D03*
G01*
X3060700Y2654300D03*
G01*
X3060700Y2400300D03*
G01*
X3060700Y2146300D03*
G01*
X3060700Y1892300D03*
G01*
X4584700Y5448300D03*
G01*
X4584700Y5194300D03*
G01*
X4584700Y4940300D03*
G01*
X4584700Y4686300D03*
G01*
X4584700Y4432300D03*
G01*
X4584700Y4178300D03*
G01*
X4584700Y3924300D03*
G01*
X4584700Y3670300D03*
G01*
X4584700Y3416300D03*
G01*
X4584700Y3162300D03*
G01*
X4584700Y2908300D03*
G01*
X4584700Y2654300D03*
G01*
X4584700Y2400300D03*
G01*
X4584700Y2146300D03*
G01*
X4584700Y1892300D03*
G36*
X6342634Y1687321D02*
G01*
X6342634Y2057654D01*
X6712965Y2057654D01*
X6712965Y1687321D01*
G37*
D21*
G01*
X7035800Y1872386D03*
M02*
