M48
METRIC,LZ,000.000
;FILE_FORMAT=3:3
;TYPE=PLATED
;Layer: Drill PTH
;EasyEDA v6.4.19.5, 2021-05-06T20:56:21--4:00
;abff795b53f7494696e4529b8d7fc3de,4cc6b0da07df45819412c628e5a569e9,10
;Gerber Generator version 0.2
;Holesize 1 = 0.310 mm
T01C0.310
;Holesize 2 = 0.915 mm
T02C0.915
;Holesize 3 = 1.000 mm
T03C1.000
%
G05
G90
T01
X039497Y043053
X035118Y040513
T02
X055372Y046863
X055372Y044323
X055372Y041783
X055372Y039243
X055372Y036703
X055372Y034163
X055372Y031623
X055372Y029083
X068072Y029083
X068072Y031623
X068072Y034163
X068072Y036703
X068072Y039243
X068072Y041783
X068072Y044323
X068072Y046863
X062992Y029083
X065532Y029083
X064262Y030861
X019050Y056134
X022606Y056134
X030607Y054483
X030607Y051943
X030607Y049403
X030607Y046863
X030607Y044323
X030607Y041783
X030607Y039243
X030607Y036703
X030607Y034163
X030607Y031623
X030607Y029083
X030607Y026543
X030607Y024003
X030607Y021463
X030607Y018923
X045847Y054483
X045847Y051943
X045847Y049403
X045847Y046863
X045847Y044323
X045847Y041783
X045847Y039243
X045847Y036703
X045847Y034163
X045847Y031623
X045847Y029083
X045847Y026543
X045847Y024003
X045847Y021463
X045847Y018923
T03
X013263Y048133
X013263Y043053
X013263Y023241
X013263Y018161
X013263Y036195
X013263Y031115
X052959Y018724
X058039Y018724
X065278Y018724
X070358Y018724
M30
