G04 Layer: TopSilkLayer*
G04 EasyEDA v6.4.19.5, 2021-05-06T20:56:21--4:00*
G04 abff795b53f7494696e4529b8d7fc3de,4cc6b0da07df45819412c628e5a569e9,10*
G04 Gerber Generator version 0.2*
G04 Scale: 100 percent, Rotated: No, Reflected: No *
G04 Dimensions in millimeters *
G04 leading zeros omitted , absolute positions ,4 integer and 5 decimal *
%FSLAX45Y45*%
%MOMM*%

%ADD10C,0.2540*%
%ADD18C,0.1520*%
%ADD19C,0.1524*%
%ADD20C,0.2032*%

%LPD*%
G36*
X6328460Y6252718D02*
G01*
X6328460Y5548274D01*
X6331508Y5548274D01*
X6335014Y5549493D01*
X6342126Y5552795D01*
X6363360Y5563717D01*
X6392164Y5579211D01*
X6392164Y5797194D01*
X6504889Y5797194D01*
X6504940Y5700268D01*
X6505651Y5666486D01*
X6506209Y5654497D01*
X6506819Y5646724D01*
X6507175Y5644692D01*
X6507530Y5643981D01*
X6511086Y5645404D01*
X6518706Y5649214D01*
X6541922Y5661812D01*
X6573570Y5679643D01*
X6571030Y5985967D01*
X6507327Y6022187D01*
X6504635Y5868974D01*
X6392164Y5868974D01*
X6392164Y6142634D01*
X6432550Y6120485D01*
X6475171Y6096508D01*
X6620002Y6013704D01*
X6622592Y5650636D01*
X6399174Y5521706D01*
X6367170Y5503418D01*
X6330950Y5483047D01*
X6328054Y5408422D01*
X6411925Y5455920D01*
X6691071Y5612688D01*
X6691071Y6048857D01*
X6394399Y6216954D01*
X6352438Y6240475D01*
X6333439Y6250889D01*
G37*
G36*
X6274562Y6251905D02*
G01*
X6267907Y6251346D01*
X6261354Y6248298D01*
X6229654Y6231534D01*
X6178092Y6203340D01*
X6112764Y6167018D01*
X5909564Y6052769D01*
X5907024Y5612790D01*
X6147968Y5477764D01*
X6250279Y5420868D01*
X6269532Y5410454D01*
X6274562Y5408676D01*
X6274562Y6122670D01*
X6269888Y6122670D01*
X6267500Y6122111D01*
X6263589Y6120536D01*
X6252514Y6115050D01*
X6239205Y6107633D01*
X6226098Y6099759D01*
X6215684Y6092850D01*
X6212230Y6090208D01*
X6210401Y6088329D01*
X6209284Y6085484D01*
X6204305Y6069482D01*
X6196380Y6042456D01*
X6186525Y6007709D01*
X6154877Y5893054D01*
X6151321Y5896559D01*
X6149543Y5899658D01*
X6141872Y5916726D01*
X6130594Y5944209D01*
X6110630Y5994908D01*
X6105601Y6006287D01*
X6103315Y6010605D01*
X6101130Y6014110D01*
X6098946Y6016802D01*
X6096711Y6018733D01*
X6094374Y6019952D01*
X6091885Y6020460D01*
X6089142Y6020358D01*
X6086144Y6019698D01*
X6082792Y6018428D01*
X6074816Y6014466D01*
X6024778Y5986221D01*
X6024676Y5682742D01*
X6066028Y5659170D01*
X6082995Y5650128D01*
X6086195Y5648807D01*
X6086551Y5650484D01*
X6087211Y5663031D01*
X6087770Y5686145D01*
X6088380Y5755386D01*
X6088380Y5903061D01*
X6092545Y5900521D01*
X6093358Y5899607D01*
X6096050Y5894527D01*
X6100013Y5885688D01*
X6110732Y5859322D01*
X6126530Y5817463D01*
X6137706Y5788507D01*
X6145123Y5770524D01*
X6146800Y5767324D01*
X6150000Y5763818D01*
X6186779Y5848807D01*
X6198666Y5874766D01*
X6203035Y5883706D01*
X6205931Y5889091D01*
X6206744Y5890260D01*
X6210909Y5894832D01*
X6210909Y5524347D01*
X6205626Y5524347D01*
X6203289Y5525160D01*
X6190640Y5531459D01*
X6168948Y5542991D01*
X6106312Y5577484D01*
X5975858Y5651195D01*
X5975705Y6012230D01*
X6062573Y6061964D01*
X6221425Y6151829D01*
X6248349Y6167628D01*
X6265773Y6178448D01*
X6269990Y6181394D01*
X6270853Y6182207D01*
X6274409Y6187287D01*
G37*
G36*
X6889496Y5309717D02*
G01*
X6887667Y5309362D01*
X6887057Y5307025D01*
X6888581Y5303520D01*
X6892798Y5295950D01*
X6906666Y5273040D01*
X6926224Y5241747D01*
X6926224Y5203647D01*
X6936028Y5203647D01*
X6936028Y5238343D01*
X6979920Y5308955D01*
X6967728Y5308955D01*
X6943293Y5269230D01*
X6940042Y5264556D01*
X6937197Y5261203D01*
X6934657Y5259120D01*
X6932269Y5258409D01*
X6929932Y5258968D01*
X6927494Y5260797D01*
X6924802Y5263946D01*
X6918198Y5274106D01*
X6909206Y5288635D01*
X6904481Y5295341D01*
X6899960Y5300929D01*
X6895795Y5305348D01*
X6892239Y5308346D01*
G37*
G36*
X7114895Y5309362D02*
G01*
X7096506Y5296204D01*
X7096506Y5269941D01*
X7101078Y5265470D01*
X7104938Y5263083D01*
X7112152Y5259882D01*
X7121601Y5256276D01*
X7132320Y5252669D01*
X7158990Y5244338D01*
X7158990Y5220766D01*
X7128002Y5212080D01*
X7097826Y5226812D01*
X7092950Y5219090D01*
X7109053Y5206034D01*
X7155027Y5206034D01*
X7171232Y5219141D01*
X7171232Y5245557D01*
X7164425Y5251094D01*
X7160107Y5253685D01*
X7153452Y5256682D01*
X7145375Y5259781D01*
X7136739Y5262473D01*
X7115860Y5268417D01*
X7105650Y5284216D01*
X7119416Y5300370D01*
X7166660Y5295950D01*
X7163104Y5306568D01*
G37*
G36*
X6754418Y5309362D02*
G01*
X6754684Y5299354D01*
X6815988Y5299202D01*
X6829094Y5291124D01*
X6825792Y5268264D01*
X6769455Y5265369D01*
X6769455Y5299354D01*
X6754684Y5299354D01*
X6756415Y5234990D01*
X6769912Y5234990D01*
X6769963Y5240731D01*
X6770471Y5245811D01*
X6771386Y5249519D01*
X6774027Y5256276D01*
X6791045Y5256276D01*
X6798614Y5255920D01*
X6806692Y5254904D01*
X6814362Y5253431D01*
X6820560Y5251602D01*
X6833158Y5246928D01*
X6833158Y5222544D01*
X6806742Y5212740D01*
X6771894Y5215585D01*
X6770319Y5229148D01*
X6769912Y5234990D01*
X6756415Y5234990D01*
X6757212Y5206034D01*
X6815988Y5203545D01*
X6827774Y5209590D01*
X6832752Y5212588D01*
X6837680Y5216296D01*
X6841896Y5220309D01*
X6844893Y5224068D01*
X6850278Y5232552D01*
X6833463Y5261305D01*
X6842150Y5283555D01*
X6830466Y5306568D01*
G37*
G36*
X7210450Y5308955D02*
G01*
X7210450Y5299354D01*
X7244384Y5299354D01*
X7247178Y5206796D01*
X7259421Y5202834D01*
X7259421Y5299354D01*
X7293152Y5299354D01*
X7299198Y5308955D01*
G37*
G36*
X7023912Y5308955D02*
G01*
X7026706Y5206034D01*
X7036511Y5206034D01*
X7039254Y5308955D01*
G37*
G36*
X6607454Y5308955D02*
G01*
X6607710Y5299354D01*
X6669024Y5299202D01*
X6682130Y5291124D01*
X6678828Y5268264D01*
X6622440Y5265369D01*
X6622440Y5299354D01*
X6607710Y5299354D01*
X6608825Y5257495D01*
X6622440Y5257495D01*
X6677812Y5252974D01*
X6690359Y5236210D01*
X6684822Y5222036D01*
X6672935Y5217617D01*
X6666788Y5215890D01*
X6658864Y5214518D01*
X6650177Y5213553D01*
X6641744Y5213197D01*
X6622440Y5213197D01*
X6622440Y5257495D01*
X6608825Y5257495D01*
X6610197Y5206034D01*
X6632143Y5204510D01*
X6641896Y5204155D01*
X6652310Y5204256D01*
X6662064Y5204866D01*
X6669989Y5205882D01*
X6685838Y5208778D01*
X6700875Y5223459D01*
X6700875Y5243576D01*
X6686296Y5259273D01*
X6697929Y5289296D01*
X6679742Y5308955D01*
G37*
G36*
X6476238Y5308955D02*
G01*
X6446418Y5284419D01*
X6440068Y5251348D01*
X6443174Y5244033D01*
X6455867Y5244033D01*
X6455867Y5275884D01*
X6479946Y5299354D01*
X6513322Y5299354D01*
X6538417Y5280101D01*
X6544665Y5252212D01*
X6529527Y5223560D01*
X6496456Y5212943D01*
X6471564Y5222189D01*
X6455867Y5244033D01*
X6443174Y5244033D01*
X6452616Y5221630D01*
X6482842Y5203647D01*
X6513220Y5203647D01*
X6546494Y5225491D01*
X6555282Y5259781D01*
X6548577Y5285841D01*
X6523024Y5308955D01*
G37*
G36*
X6293866Y5308955D02*
G01*
X6296609Y5206034D01*
X6306413Y5206034D01*
X6309410Y5251500D01*
X6372047Y5251500D01*
X6375044Y5206034D01*
X6384848Y5206034D01*
X6387592Y5308955D01*
X6372555Y5308955D01*
X6372555Y5265877D01*
X6308902Y5265877D01*
X6308902Y5308955D01*
G37*
G36*
X6068466Y5308955D02*
G01*
X6071260Y5206034D01*
X6081064Y5208320D01*
X6085941Y5284724D01*
X6124295Y5237683D01*
X6136386Y5223662D01*
X6146342Y5213045D01*
X6150102Y5209387D01*
X6152896Y5207050D01*
X6154521Y5206187D01*
X6159449Y5206034D01*
X6162192Y5308955D01*
X6147562Y5308955D01*
X6144717Y5230114D01*
X6081064Y5308904D01*
G37*
G36*
X5926124Y5308955D02*
G01*
X5932170Y5299354D01*
X5984798Y5299354D01*
X6000750Y5283809D01*
X5997752Y5258917D01*
X5973267Y5246878D01*
X5926124Y5246725D01*
X5929172Y5206034D01*
X5938926Y5206034D01*
X5942025Y5237124D01*
X5979820Y5237124D01*
X5990386Y5220411D01*
X5994247Y5214772D01*
X5997854Y5210200D01*
X6001156Y5206796D01*
X6004102Y5204612D01*
X6006541Y5203647D01*
X6008420Y5204002D01*
X6009589Y5205730D01*
X6009995Y5208879D01*
X6009233Y5211826D01*
X6007150Y5216093D01*
X6004052Y5221071D01*
X6000242Y5226202D01*
X5990488Y5238292D01*
X6015583Y5267350D01*
X6009589Y5292191D01*
X5989320Y5308955D01*
G37*
G36*
X5793841Y5308955D02*
G01*
X5799886Y5299354D01*
X5867908Y5299354D01*
X5867908Y5308955D01*
G37*
G36*
X5637276Y5308955D02*
G01*
X5638482Y5265318D01*
X5648045Y5265318D01*
X5648147Y5277967D01*
X5648604Y5287619D01*
X5649468Y5292953D01*
X5652008Y5299354D01*
X5701741Y5299354D01*
X5725820Y5275884D01*
X5725820Y5238800D01*
X5702960Y5217820D01*
X5649874Y5215585D01*
X5648147Y5258308D01*
X5648045Y5265318D01*
X5638482Y5265318D01*
X5640070Y5206034D01*
X5703824Y5206644D01*
X5730240Y5223560D01*
X5741263Y5256326D01*
X5734913Y5284774D01*
X5705449Y5308955D01*
G37*
G36*
X5499658Y5308955D02*
G01*
X5471007Y5280964D01*
X5471007Y5261203D01*
X5480812Y5261203D01*
X5480812Y5271363D01*
X5509463Y5299354D01*
X5544972Y5299354D01*
X5569000Y5275884D01*
X5569000Y5238800D01*
X5557977Y5229098D01*
X5552998Y5225084D01*
X5547461Y5221325D01*
X5542127Y5218226D01*
X5537657Y5216194D01*
X5528310Y5212943D01*
X5495340Y5223560D01*
X5488076Y5237327D01*
X5485282Y5243423D01*
X5482945Y5249976D01*
X5481421Y5256174D01*
X5480812Y5261203D01*
X5471007Y5261203D01*
X5471007Y5237276D01*
X5497982Y5208066D01*
X5532729Y5202682D01*
X5569356Y5217668D01*
X5584494Y5253075D01*
X5578500Y5284419D01*
X5548680Y5308955D01*
G37*
G36*
X5299202Y5308955D02*
G01*
X5301996Y5206034D01*
X5311800Y5208320D01*
X5316677Y5282590D01*
X5346852Y5232400D01*
X5349544Y5228285D01*
X5351932Y5225084D01*
X5354116Y5222798D01*
X5356148Y5221427D01*
X5358079Y5220970D01*
X5360009Y5221427D01*
X5362041Y5222798D01*
X5364276Y5225084D01*
X5369458Y5232450D01*
X5399989Y5282590D01*
X5402834Y5203647D01*
X5412232Y5203647D01*
X5412232Y5308955D01*
X5407761Y5308955D01*
X5406440Y5308193D01*
X5404358Y5306110D01*
X5401614Y5302808D01*
X5394655Y5293106D01*
X5386374Y5280304D01*
X5370220Y5253177D01*
X5367223Y5248554D01*
X5364632Y5244998D01*
X5362244Y5242458D01*
X5360060Y5240934D01*
X5357977Y5240375D01*
X5355844Y5240883D01*
X5353710Y5242458D01*
X5351322Y5244998D01*
X5348732Y5248554D01*
X5342483Y5258765D01*
X5313121Y5308955D01*
G37*
G36*
X5799886Y5265877D02*
G01*
X5793841Y5256276D01*
X5867908Y5256276D01*
X5867908Y5265877D01*
G37*
G36*
X5793841Y5213197D02*
G01*
X5799886Y5203647D01*
X5867908Y5203647D01*
X5867908Y5213197D01*
G37*
D18*
X775207Y4328921D02*
G01*
X785621Y4334255D01*
X796036Y4344670D01*
X801115Y4354829D01*
X801115Y4375657D01*
X796036Y4386071D01*
X785621Y4396486D01*
X775207Y4401820D01*
X759460Y4406900D01*
X733552Y4406900D01*
X718057Y4401820D01*
X707644Y4396486D01*
X697229Y4386071D01*
X692150Y4375657D01*
X692150Y4354829D01*
X697229Y4344670D01*
X707644Y4334255D01*
X718057Y4328921D01*
X733552Y4328921D01*
X733552Y4354829D02*
G01*
X733552Y4328921D01*
X801115Y4294631D02*
G01*
X692150Y4294631D01*
X801115Y4294631D02*
G01*
X692150Y4221987D01*
X801115Y4221987D02*
G01*
X692150Y4221987D01*
X801115Y4187697D02*
G01*
X692150Y4187697D01*
X801115Y4187697D02*
G01*
X801115Y4151376D01*
X796036Y4135628D01*
X785621Y4125213D01*
X775207Y4120134D01*
X759460Y4114800D01*
X733552Y4114800D01*
X718057Y4120134D01*
X707644Y4125213D01*
X697229Y4135628D01*
X692150Y4151376D01*
X692150Y4187697D01*
D19*
X801115Y3225800D02*
G01*
X723137Y3225800D01*
X707644Y3220720D01*
X697229Y3210305D01*
X692150Y3194557D01*
X692150Y3184144D01*
X697229Y3168650D01*
X707644Y3158236D01*
X723137Y3153155D01*
X801115Y3153155D01*
X801115Y3118865D02*
G01*
X692150Y3118865D01*
X801115Y3118865D02*
G01*
X801115Y3072129D01*
X796036Y3056381D01*
X790702Y3051302D01*
X780287Y3045968D01*
X764794Y3045968D01*
X754379Y3051302D01*
X749300Y3056381D01*
X743965Y3072129D01*
X743965Y3118865D01*
X788415Y2501900D02*
G01*
X679450Y2501900D01*
X788415Y2501900D02*
G01*
X788415Y2465578D01*
X783336Y2449829D01*
X772921Y2439670D01*
X762507Y2434336D01*
X746760Y2429255D01*
X720852Y2429255D01*
X705357Y2434336D01*
X694944Y2439670D01*
X684529Y2449829D01*
X679450Y2465578D01*
X679450Y2501900D01*
X788415Y2363723D02*
G01*
X783336Y2374137D01*
X772921Y2384552D01*
X762507Y2389631D01*
X746760Y2394965D01*
X720852Y2394965D01*
X705357Y2389631D01*
X694944Y2384552D01*
X684529Y2374137D01*
X679450Y2363723D01*
X679450Y2342895D01*
X684529Y2332481D01*
X694944Y2322068D01*
X705357Y2316987D01*
X720852Y2311654D01*
X746760Y2311654D01*
X762507Y2316987D01*
X772921Y2322068D01*
X783336Y2332481D01*
X788415Y2342895D01*
X788415Y2363723D01*
X788415Y2277363D02*
G01*
X679450Y2251455D01*
X788415Y2225547D02*
G01*
X679450Y2251455D01*
X788415Y2225547D02*
G01*
X679450Y2199639D01*
X788415Y2173478D02*
G01*
X679450Y2199639D01*
X788415Y2139187D02*
G01*
X679450Y2139187D01*
X788415Y2139187D02*
G01*
X679450Y2066544D01*
X788415Y2066544D02*
G01*
X679450Y2066544D01*
X788415Y1905000D02*
G01*
X679450Y1905000D01*
X788415Y1905000D02*
G01*
X788415Y1868678D01*
X783336Y1852929D01*
X772921Y1842770D01*
X762507Y1837436D01*
X746760Y1832355D01*
X720852Y1832355D01*
X705357Y1837436D01*
X694944Y1842770D01*
X684529Y1852929D01*
X679450Y1868678D01*
X679450Y1905000D01*
X788415Y1798065D02*
G01*
X679450Y1798065D01*
X788415Y1763776D02*
G01*
X679450Y1763776D01*
X788415Y1763776D02*
G01*
X788415Y1717039D01*
X783336Y1701292D01*
X778002Y1696212D01*
X767587Y1690878D01*
X757173Y1690878D01*
X746760Y1696212D01*
X741679Y1701292D01*
X736600Y1717039D01*
X736600Y1763776D01*
X736600Y1727200D02*
G01*
X679450Y1690878D01*
X5118100Y1347215D02*
G01*
X5118100Y1238250D01*
X5118100Y1347215D02*
G01*
X5164836Y1347215D01*
X5180329Y1342136D01*
X5185663Y1336802D01*
X5190743Y1326387D01*
X5190743Y1315973D01*
X5185663Y1305560D01*
X5180329Y1300479D01*
X5164836Y1295400D01*
X5118100Y1295400D01*
X5154422Y1295400D02*
G01*
X5190743Y1238250D01*
X5225034Y1347215D02*
G01*
X5225034Y1238250D01*
X5225034Y1347215D02*
G01*
X5292597Y1347215D01*
X5225034Y1295400D02*
G01*
X5266690Y1295400D01*
X5225034Y1238250D02*
G01*
X5292597Y1238250D01*
X5326888Y1347215D02*
G01*
X5326888Y1238250D01*
X5326888Y1347215D02*
G01*
X5363209Y1347215D01*
X5378958Y1342136D01*
X5389372Y1331721D01*
X5394452Y1321307D01*
X5399786Y1305560D01*
X5399786Y1279652D01*
X5394452Y1264157D01*
X5389372Y1253744D01*
X5378958Y1243329D01*
X5363209Y1238250D01*
X5326888Y1238250D01*
X5665977Y1321307D02*
G01*
X5660643Y1331721D01*
X5650229Y1342136D01*
X5640070Y1347215D01*
X5619241Y1347215D01*
X5608827Y1342136D01*
X5598413Y1331721D01*
X5593079Y1321307D01*
X5588000Y1305560D01*
X5588000Y1279652D01*
X5593079Y1264157D01*
X5598413Y1253744D01*
X5608827Y1243329D01*
X5619241Y1238250D01*
X5640070Y1238250D01*
X5650229Y1243329D01*
X5660643Y1253744D01*
X5665977Y1264157D01*
X5665977Y1279652D01*
X5640070Y1279652D02*
G01*
X5665977Y1279652D01*
X5700268Y1347215D02*
G01*
X5700268Y1238250D01*
X5700268Y1347215D02*
G01*
X5747004Y1347215D01*
X5762497Y1342136D01*
X5767831Y1336802D01*
X5772911Y1326387D01*
X5772911Y1315973D01*
X5767831Y1305560D01*
X5762497Y1300479D01*
X5747004Y1295400D01*
X5700268Y1295400D01*
X5736590Y1295400D02*
G01*
X5772911Y1238250D01*
X5807202Y1347215D02*
G01*
X5807202Y1238250D01*
X5807202Y1347215D02*
G01*
X5874765Y1347215D01*
X5807202Y1295400D02*
G01*
X5848858Y1295400D01*
X5807202Y1238250D02*
G01*
X5874765Y1238250D01*
X5909056Y1347215D02*
G01*
X5909056Y1238250D01*
X5909056Y1347215D02*
G01*
X5976620Y1347215D01*
X5909056Y1295400D02*
G01*
X5950711Y1295400D01*
X5909056Y1238250D02*
G01*
X5976620Y1238250D01*
X6010909Y1347215D02*
G01*
X6010909Y1238250D01*
X6010909Y1347215D02*
G01*
X6083554Y1238250D01*
X6083554Y1347215D02*
G01*
X6083554Y1238250D01*
X6197600Y1347215D02*
G01*
X6239256Y1295400D01*
X6239256Y1238250D01*
X6280658Y1347215D02*
G01*
X6239256Y1295400D01*
X6314947Y1347215D02*
G01*
X6314947Y1238250D01*
X6314947Y1347215D02*
G01*
X6382511Y1347215D01*
X6314947Y1295400D02*
G01*
X6356604Y1295400D01*
X6314947Y1238250D02*
G01*
X6382511Y1238250D01*
X6416802Y1347215D02*
G01*
X6416802Y1238250D01*
X6416802Y1238250D02*
G01*
X6479286Y1238250D01*
X6513575Y1347215D02*
G01*
X6513575Y1238250D01*
X6513575Y1238250D02*
G01*
X6575806Y1238250D01*
X6641338Y1347215D02*
G01*
X6630924Y1342136D01*
X6620509Y1331721D01*
X6615429Y1321307D01*
X6610095Y1305560D01*
X6610095Y1279652D01*
X6615429Y1264157D01*
X6620509Y1253744D01*
X6630924Y1243329D01*
X6641338Y1238250D01*
X6662165Y1238250D01*
X6672579Y1243329D01*
X6682740Y1253744D01*
X6688074Y1264157D01*
X6693154Y1279652D01*
X6693154Y1305560D01*
X6688074Y1321307D01*
X6682740Y1331721D01*
X6672579Y1342136D01*
X6662165Y1347215D01*
X6641338Y1347215D01*
X6727443Y1347215D02*
G01*
X6753606Y1238250D01*
X6779513Y1347215D02*
G01*
X6753606Y1238250D01*
X6779513Y1347215D02*
G01*
X6805422Y1238250D01*
X6831329Y1347215D02*
G01*
X6805422Y1238250D01*
X6934200Y1359915D02*
G01*
X6934200Y1250950D01*
X6934200Y1359915D02*
G01*
X6980936Y1359915D01*
X6996429Y1354836D01*
X7001763Y1349502D01*
X7006843Y1339087D01*
X7006843Y1328673D01*
X7001763Y1318260D01*
X6996429Y1313179D01*
X6980936Y1308100D01*
X6934200Y1308100D02*
G01*
X6980936Y1308100D01*
X6996429Y1302765D01*
X7001763Y1297686D01*
X7006843Y1287271D01*
X7006843Y1271523D01*
X7001763Y1261110D01*
X6996429Y1256029D01*
X6980936Y1250950D01*
X6934200Y1250950D01*
X7041134Y1359915D02*
G01*
X7041134Y1250950D01*
X7041134Y1250950D02*
G01*
X7103618Y1250950D01*
X7137908Y1359915D02*
G01*
X7137908Y1281937D01*
X7142988Y1266444D01*
X7153402Y1256029D01*
X7169150Y1250950D01*
X7179309Y1250950D01*
X7195058Y1256029D01*
X7205472Y1266444D01*
X7210552Y1281937D01*
X7210552Y1359915D01*
X7244841Y1359915D02*
G01*
X7244841Y1250950D01*
X7244841Y1359915D02*
G01*
X7312406Y1359915D01*
X7244841Y1308100D02*
G01*
X7286497Y1308100D01*
X7244841Y1250950D02*
G01*
X7312406Y1250950D01*
X6172200Y4954015D02*
G01*
X6172200Y4876037D01*
X6177279Y4860544D01*
X6187693Y4850129D01*
X6203441Y4845050D01*
X6213856Y4845050D01*
X6229350Y4850129D01*
X6239763Y4860544D01*
X6244843Y4876037D01*
X6244843Y4954015D01*
X6289547Y4954015D02*
G01*
X6346697Y4954015D01*
X6315709Y4912360D01*
X6331204Y4912360D01*
X6341618Y4907279D01*
X6346697Y4902200D01*
X6352031Y4886452D01*
X6352031Y4876037D01*
X6346697Y4860544D01*
X6336284Y4850129D01*
X6320790Y4845050D01*
X6305295Y4845050D01*
X6289547Y4850129D01*
X6284468Y4855210D01*
X6279134Y4865623D01*
D20*
X5732272Y4714242D02*
G01*
X5727954Y4723386D01*
X5718809Y4732530D01*
X5709665Y4737102D01*
X5691377Y4737102D01*
X5682488Y4732530D01*
X5673343Y4723386D01*
X5668772Y4714242D01*
X5664200Y4700780D01*
X5664200Y4677920D01*
X5668772Y4664204D01*
X5673343Y4655314D01*
X5682488Y4646170D01*
X5691377Y4641598D01*
X5709665Y4641598D01*
X5718809Y4646170D01*
X5727954Y4655314D01*
X5732272Y4664204D01*
X5732272Y4677920D01*
X5709665Y4677920D02*
G01*
X5732272Y4677920D01*
X5762497Y4737102D02*
G01*
X5762497Y4641598D01*
X5762497Y4737102D02*
G01*
X5825997Y4641598D01*
X5825997Y4737102D02*
G01*
X5825997Y4641598D01*
X5855970Y4737102D02*
G01*
X5855970Y4641598D01*
X5855970Y4737102D02*
G01*
X5887720Y4737102D01*
X5901436Y4732530D01*
X5910579Y4723386D01*
X5915152Y4714242D01*
X5919724Y4700780D01*
X5919724Y4677920D01*
X5915152Y4664204D01*
X5910579Y4655314D01*
X5901436Y4646170D01*
X5887720Y4641598D01*
X5855970Y4641598D01*
X5664200Y4483100D02*
G01*
X5700522Y4387595D01*
X5736843Y4483100D02*
G01*
X5700522Y4387595D01*
X5766815Y4483100D02*
G01*
X5766815Y4387595D01*
X5824220Y4483100D02*
G01*
X5815075Y4478528D01*
X5805931Y4469384D01*
X5801359Y4460239D01*
X5797041Y4446778D01*
X5797041Y4423918D01*
X5801359Y4410202D01*
X5805931Y4401312D01*
X5815075Y4392168D01*
X5824220Y4387595D01*
X5842508Y4387595D01*
X5851397Y4392168D01*
X5860541Y4401312D01*
X5865113Y4410202D01*
X5869686Y4423918D01*
X5869686Y4446778D01*
X5865113Y4460239D01*
X5860541Y4469384D01*
X5851397Y4478528D01*
X5842508Y4483100D01*
X5824220Y4483100D01*
X5664200Y3467102D02*
G01*
X5664200Y3371598D01*
X5664200Y3467102D02*
G01*
X5700522Y3371598D01*
X5736843Y3467102D02*
G01*
X5700522Y3371598D01*
X5736843Y3467102D02*
G01*
X5736843Y3371598D01*
X5771388Y3444242D02*
G01*
X5771388Y3448814D01*
X5775959Y3457958D01*
X5780531Y3462530D01*
X5789675Y3467102D01*
X5807709Y3467102D01*
X5816854Y3462530D01*
X5821425Y3457958D01*
X5825997Y3448814D01*
X5825997Y3439670D01*
X5821425Y3430780D01*
X5812281Y3417064D01*
X5766815Y3371598D01*
X5830570Y3371598D01*
X5860541Y3467102D02*
G01*
X5860541Y3371598D01*
X5860541Y3467102D02*
G01*
X5901436Y3467102D01*
X5915152Y3462530D01*
X5919724Y3457958D01*
X5924295Y3448814D01*
X5924295Y3439670D01*
X5919724Y3430780D01*
X5915152Y3426208D01*
X5901436Y3421636D01*
X5860541Y3421636D02*
G01*
X5901436Y3421636D01*
X5915152Y3417064D01*
X5919724Y3412492D01*
X5924295Y3403348D01*
X5924295Y3389886D01*
X5919724Y3380742D01*
X5915152Y3376170D01*
X5901436Y3371598D01*
X5860541Y3371598D01*
X5664200Y3721102D02*
G01*
X5664200Y3625598D01*
X5664200Y3721102D02*
G01*
X5700522Y3625598D01*
X5736843Y3721102D02*
G01*
X5700522Y3625598D01*
X5736843Y3721102D02*
G01*
X5736843Y3625598D01*
X5771388Y3698242D02*
G01*
X5771388Y3702814D01*
X5775959Y3711958D01*
X5780531Y3716530D01*
X5789675Y3721102D01*
X5807709Y3721102D01*
X5816854Y3716530D01*
X5821425Y3711958D01*
X5825997Y3702814D01*
X5825997Y3693670D01*
X5821425Y3684780D01*
X5812281Y3671064D01*
X5766815Y3625598D01*
X5830570Y3625598D01*
X5896863Y3721102D02*
G01*
X5860541Y3625598D01*
X5896863Y3721102D02*
G01*
X5933186Y3625598D01*
X5874258Y3657348D02*
G01*
X5919724Y3657348D01*
X5664200Y3975102D02*
G01*
X5664200Y3879598D01*
X5664200Y3975102D02*
G01*
X5700522Y3879598D01*
X5736843Y3975102D02*
G01*
X5700522Y3879598D01*
X5736843Y3975102D02*
G01*
X5736843Y3879598D01*
X5766815Y3956814D02*
G01*
X5775959Y3961386D01*
X5789675Y3975102D01*
X5789675Y3879598D01*
X5855970Y3975102D02*
G01*
X5819647Y3879598D01*
X5855970Y3975102D02*
G01*
X5892291Y3879598D01*
X5833363Y3911348D02*
G01*
X5878829Y3911348D01*
X5664200Y4229102D02*
G01*
X5664200Y4133598D01*
X5664200Y4229102D02*
G01*
X5700522Y4133598D01*
X5736843Y4229102D02*
G01*
X5700522Y4133598D01*
X5736843Y4229102D02*
G01*
X5736843Y4133598D01*
X5766815Y4210814D02*
G01*
X5775959Y4215386D01*
X5789675Y4229102D01*
X5789675Y4133598D01*
X5819647Y4229102D02*
G01*
X5819647Y4133598D01*
X5819647Y4229102D02*
G01*
X5860541Y4229102D01*
X5874258Y4224530D01*
X5878829Y4219958D01*
X5883402Y4210814D01*
X5883402Y4201670D01*
X5878829Y4192780D01*
X5874258Y4188208D01*
X5860541Y4183636D01*
X5819647Y4183636D02*
G01*
X5860541Y4183636D01*
X5874258Y4179064D01*
X5878829Y4174492D01*
X5883402Y4165348D01*
X5883402Y4151886D01*
X5878829Y4142742D01*
X5874258Y4138170D01*
X5860541Y4133598D01*
X5819647Y4133598D01*
X5732272Y3190239D02*
G01*
X5727954Y3199384D01*
X5718809Y3208528D01*
X5709665Y3213100D01*
X5691377Y3213100D01*
X5682488Y3208528D01*
X5673343Y3199384D01*
X5668772Y3190239D01*
X5664200Y3176778D01*
X5664200Y3153918D01*
X5668772Y3140202D01*
X5673343Y3131312D01*
X5682488Y3122168D01*
X5691377Y3117595D01*
X5709665Y3117595D01*
X5718809Y3122168D01*
X5727954Y3131312D01*
X5732272Y3140202D01*
X5732272Y3153918D01*
X5709665Y3153918D02*
G01*
X5732272Y3153918D01*
X5762497Y3213100D02*
G01*
X5762497Y3117595D01*
X5762497Y3213100D02*
G01*
X5825997Y3117595D01*
X5825997Y3213100D02*
G01*
X5825997Y3117595D01*
X5855970Y3213100D02*
G01*
X5855970Y3117595D01*
X5855970Y3213100D02*
G01*
X5887720Y3213100D01*
X5901436Y3208528D01*
X5910579Y3199384D01*
X5915152Y3190239D01*
X5919724Y3176778D01*
X5919724Y3153918D01*
X5915152Y3140202D01*
X5910579Y3131312D01*
X5901436Y3122168D01*
X5887720Y3117595D01*
X5855970Y3117595D01*
X5664200Y2959102D02*
G01*
X5700522Y2863598D01*
X5736843Y2959102D02*
G01*
X5700522Y2863598D01*
X5766815Y2959102D02*
G01*
X5766815Y2863598D01*
X5766815Y2959102D02*
G01*
X5803391Y2863598D01*
X5839713Y2959102D02*
G01*
X5803391Y2863598D01*
X5839713Y2959102D02*
G01*
X5839713Y2863598D01*
X6553200Y3111502D02*
G01*
X6553200Y3015998D01*
X6553200Y3111502D02*
G01*
X6612381Y3111502D01*
X6553200Y3066036D02*
G01*
X6589522Y3066036D01*
X6553200Y3015998D02*
G01*
X6612381Y3015998D01*
X6642354Y3111502D02*
G01*
X6642354Y3015998D01*
X6642354Y3111502D02*
G01*
X6705854Y3015998D01*
X6705854Y3111502D02*
G01*
X6705854Y3015998D01*
X6477000Y3289300D02*
G01*
X6477000Y3193795D01*
X6477000Y3289300D02*
G01*
X6513322Y3193795D01*
X6549643Y3289300D02*
G01*
X6513322Y3193795D01*
X6549643Y3289300D02*
G01*
X6549643Y3193795D01*
X6643370Y3275584D02*
G01*
X6634225Y3284728D01*
X6620509Y3289300D01*
X6602475Y3289300D01*
X6588759Y3284728D01*
X6579615Y3275584D01*
X6579615Y3266439D01*
X6584188Y3257295D01*
X6588759Y3252978D01*
X6597904Y3248405D01*
X6625081Y3239262D01*
X6634225Y3234689D01*
X6638797Y3230118D01*
X6643370Y3220973D01*
X6643370Y3207512D01*
X6634225Y3198368D01*
X6620509Y3193795D01*
X6602475Y3193795D01*
X6588759Y3198368D01*
X6579615Y3207512D01*
X6673341Y3271012D02*
G01*
X6682486Y3275584D01*
X6696202Y3289300D01*
X6696202Y3193795D01*
X6426200Y3467100D02*
G01*
X6426200Y3371595D01*
X6426200Y3467100D02*
G01*
X6462522Y3371595D01*
X6498843Y3467100D02*
G01*
X6462522Y3371595D01*
X6498843Y3467100D02*
G01*
X6498843Y3371595D01*
X6592570Y3453384D02*
G01*
X6583425Y3462528D01*
X6569709Y3467100D01*
X6551675Y3467100D01*
X6537959Y3462528D01*
X6528815Y3453384D01*
X6528815Y3444239D01*
X6533388Y3435095D01*
X6537959Y3430778D01*
X6547104Y3426205D01*
X6574281Y3417062D01*
X6583425Y3412489D01*
X6587997Y3407918D01*
X6592570Y3398773D01*
X6592570Y3385312D01*
X6583425Y3376168D01*
X6569709Y3371595D01*
X6551675Y3371595D01*
X6537959Y3376168D01*
X6528815Y3385312D01*
X6627113Y3444239D02*
G01*
X6627113Y3448812D01*
X6631686Y3457955D01*
X6636258Y3462528D01*
X6645402Y3467100D01*
X6663436Y3467100D01*
X6672579Y3462528D01*
X6677152Y3457955D01*
X6681724Y3448812D01*
X6681724Y3439668D01*
X6677152Y3430778D01*
X6668008Y3417062D01*
X6622541Y3371595D01*
X6686295Y3371595D01*
X6070600Y4229097D02*
G01*
X6070600Y4160771D01*
X6075172Y4147309D01*
X6084315Y4138165D01*
X6097777Y4133593D01*
X6106922Y4133593D01*
X6120638Y4138165D01*
X6129781Y4147309D01*
X6134354Y4160771D01*
X6134354Y4229097D01*
X6200647Y4229097D02*
G01*
X6164325Y4133593D01*
X6200647Y4229097D02*
G01*
X6236970Y4133593D01*
X6177788Y4165343D02*
G01*
X6223254Y4165343D01*
X6266941Y4229097D02*
G01*
X6266941Y4133593D01*
X6266941Y4229097D02*
G01*
X6307836Y4229097D01*
X6321552Y4224525D01*
X6326124Y4219953D01*
X6330695Y4210809D01*
X6330695Y4201665D01*
X6326124Y4192775D01*
X6321552Y4188203D01*
X6307836Y4183631D01*
X6266941Y4183631D01*
X6298691Y4183631D02*
G01*
X6330695Y4133593D01*
X6392418Y4229097D02*
G01*
X6392418Y4133593D01*
X6360668Y4229097D02*
G01*
X6424168Y4229097D01*
X6555993Y4229097D02*
G01*
X6555993Y4133593D01*
X6524243Y4229097D02*
G01*
X6587997Y4229097D01*
X6617970Y4229097D02*
G01*
X6681470Y4133593D01*
X6681470Y4229097D02*
G01*
X6617970Y4133593D01*
X6210554Y3703573D02*
G01*
X6201409Y3712718D01*
X6187693Y3717289D01*
X6169406Y3717289D01*
X6155943Y3712718D01*
X6146800Y3703573D01*
X6146800Y3694429D01*
X6151372Y3685286D01*
X6155943Y3680968D01*
X6165088Y3676395D01*
X6192265Y3667252D01*
X6201409Y3662679D01*
X6205981Y3658107D01*
X6210554Y3648963D01*
X6210554Y3635502D01*
X6201409Y3626357D01*
X6187693Y3621786D01*
X6169406Y3621786D01*
X6155943Y3626357D01*
X6146800Y3635502D01*
X6240525Y3717289D02*
G01*
X6240525Y3621786D01*
X6240525Y3717289D02*
G01*
X6281420Y3717289D01*
X6294881Y3712718D01*
X6299454Y3708145D01*
X6304025Y3699002D01*
X6304025Y3685286D01*
X6299454Y3676395D01*
X6294881Y3671823D01*
X6281420Y3667252D01*
X6240525Y3667252D01*
X6333997Y3717289D02*
G01*
X6333997Y3621786D01*
X6333997Y3717289D02*
G01*
X6374891Y3717289D01*
X6388608Y3712718D01*
X6393179Y3708145D01*
X6397752Y3699002D01*
X6397752Y3689857D01*
X6393179Y3680968D01*
X6388608Y3676395D01*
X6374891Y3671823D01*
X6333997Y3671823D01*
X6366002Y3671823D02*
G01*
X6397752Y3621786D01*
X6427724Y3717289D02*
G01*
X6427724Y3621786D01*
X6427724Y3717289D02*
G01*
X6486906Y3717289D01*
X6427724Y3671823D02*
G01*
X6464045Y3671823D01*
X6427724Y3621786D02*
G01*
X6486906Y3621786D01*
X6553200Y3717289D02*
G01*
X6516877Y3621786D01*
X6553200Y3717289D02*
G01*
X6589522Y3621786D01*
X6530340Y3653536D02*
G01*
X6575806Y3653536D01*
X6619493Y3717289D02*
G01*
X6619493Y3621786D01*
X6619493Y3717289D02*
G01*
X6651243Y3717289D01*
X6664959Y3712718D01*
X6674104Y3703573D01*
X6678675Y3694429D01*
X6683247Y3680968D01*
X6683247Y3658107D01*
X6678675Y3644392D01*
X6674104Y3635502D01*
X6664959Y3626357D01*
X6651243Y3621786D01*
X6619493Y3621786D01*
X6388354Y4469386D02*
G01*
X6379209Y4478530D01*
X6365493Y4483102D01*
X6347206Y4483102D01*
X6333743Y4478530D01*
X6324600Y4469386D01*
X6324600Y4460242D01*
X6329172Y4451098D01*
X6333743Y4446780D01*
X6342888Y4442208D01*
X6370065Y4433064D01*
X6379209Y4428492D01*
X6383781Y4423920D01*
X6388354Y4414776D01*
X6388354Y4401314D01*
X6379209Y4392170D01*
X6365493Y4387598D01*
X6347206Y4387598D01*
X6333743Y4392170D01*
X6324600Y4401314D01*
X6450075Y4483102D02*
G01*
X6450075Y4387598D01*
X6418325Y4483102D02*
G01*
X6481825Y4483102D01*
X6511797Y4483102D02*
G01*
X6511797Y4387598D01*
X6511797Y4483102D02*
G01*
X6570979Y4483102D01*
X6511797Y4437636D02*
G01*
X6548120Y4437636D01*
X6511797Y4387598D02*
G01*
X6570979Y4387598D01*
X6600952Y4483102D02*
G01*
X6600952Y4387598D01*
X6600952Y4483102D02*
G01*
X6641845Y4483102D01*
X6655561Y4478530D01*
X6660134Y4473958D01*
X6664706Y4464814D01*
X6664706Y4451098D01*
X6660134Y4442208D01*
X6655561Y4437636D01*
X6641845Y4433064D01*
X6600952Y4433064D01*
X6477000Y4737102D02*
G01*
X6477000Y4641598D01*
X6477000Y4737102D02*
G01*
X6508750Y4737102D01*
X6522465Y4732530D01*
X6531609Y4723386D01*
X6536181Y4714242D01*
X6540754Y4700780D01*
X6540754Y4677920D01*
X6536181Y4664204D01*
X6531609Y4655314D01*
X6522465Y4646170D01*
X6508750Y4641598D01*
X6477000Y4641598D01*
X6570725Y4737102D02*
G01*
X6570725Y4641598D01*
X6600697Y4737102D02*
G01*
X6600697Y4641598D01*
X6600697Y4737102D02*
G01*
X6641591Y4737102D01*
X6655308Y4732530D01*
X6659625Y4727958D01*
X6664197Y4718814D01*
X6664197Y4709670D01*
X6659625Y4700780D01*
X6655308Y4696208D01*
X6641591Y4691636D01*
X6600697Y4691636D01*
X6632447Y4691636D02*
G01*
X6664197Y4641598D01*
X6222997Y3050034D02*
G01*
X6318501Y3086356D01*
X6222997Y3122678D02*
G01*
X6318501Y3086356D01*
X6255001Y3152650D02*
G01*
X6318501Y3152650D01*
X6282179Y3152650D02*
G01*
X6268463Y3157222D01*
X6259319Y3166366D01*
X6255001Y3175510D01*
X6255001Y3189226D01*
X6282179Y3219198D02*
G01*
X6282179Y3273554D01*
X6273035Y3273554D01*
X6263891Y3269236D01*
X6259319Y3264664D01*
X6255001Y3255520D01*
X6255001Y3241804D01*
X6259319Y3232660D01*
X6268463Y3223770D01*
X6282179Y3219198D01*
X6291323Y3219198D01*
X6304785Y3223770D01*
X6313929Y3232660D01*
X6318501Y3241804D01*
X6318501Y3255520D01*
X6313929Y3264664D01*
X6304785Y3273554D01*
X6222997Y3340102D02*
G01*
X6222997Y3330958D01*
X6227569Y3321814D01*
X6241285Y3317242D01*
X6318501Y3317242D01*
X6255001Y3303780D02*
G01*
X6255001Y3335530D01*
X6070600Y2865881D02*
G01*
X6166104Y2865881D01*
X6070600Y2895854D02*
G01*
X6166104Y2895854D01*
X6070600Y2895854D02*
G01*
X6166104Y2959607D01*
X6070600Y2959607D02*
G01*
X6166104Y2959607D01*
X6070600Y2989579D02*
G01*
X6166104Y2989579D01*
X6070600Y2989579D02*
G01*
X6070600Y3021329D01*
X6075172Y3035045D01*
X6084315Y3044189D01*
X6093459Y3048507D01*
X6106922Y3053079D01*
X6129781Y3053079D01*
X6143497Y3048507D01*
X6152388Y3044189D01*
X6161531Y3035045D01*
X6166104Y3021329D01*
X6166104Y2989579D01*
X6070600Y3083052D02*
G01*
X6166104Y3083052D01*
X6070600Y3083052D02*
G01*
X6070600Y3142234D01*
X6116065Y3083052D02*
G01*
X6116065Y3119628D01*
X6166104Y3083052D02*
G01*
X6166104Y3142234D01*
X6070600Y3172205D02*
G01*
X6166104Y3235960D01*
X6070600Y3235960D02*
G01*
X6166104Y3172205D01*
X6070600Y3971289D02*
G01*
X6070600Y3902963D01*
X6075172Y3889502D01*
X6084315Y3880357D01*
X6097777Y3875786D01*
X6106922Y3875786D01*
X6120638Y3880357D01*
X6129781Y3889502D01*
X6134354Y3902963D01*
X6134354Y3971289D01*
X6200647Y3971289D02*
G01*
X6164325Y3875786D01*
X6200647Y3971289D02*
G01*
X6236970Y3875786D01*
X6177788Y3907536D02*
G01*
X6223254Y3907536D01*
X6266941Y3971289D02*
G01*
X6266941Y3875786D01*
X6266941Y3971289D02*
G01*
X6307836Y3971289D01*
X6321552Y3966718D01*
X6326124Y3962145D01*
X6330695Y3953002D01*
X6330695Y3943857D01*
X6326124Y3934968D01*
X6321552Y3930395D01*
X6307836Y3925823D01*
X6266941Y3925823D01*
X6298691Y3925823D02*
G01*
X6330695Y3875786D01*
X6392418Y3971289D02*
G01*
X6392418Y3875786D01*
X6360668Y3971289D02*
G01*
X6424168Y3971289D01*
X6524243Y3971289D02*
G01*
X6524243Y3875786D01*
X6524243Y3971289D02*
G01*
X6565138Y3971289D01*
X6578854Y3966718D01*
X6583425Y3962145D01*
X6587997Y3953002D01*
X6587997Y3943857D01*
X6583425Y3934968D01*
X6578854Y3930395D01*
X6565138Y3925823D01*
X6524243Y3925823D01*
X6555993Y3925823D02*
G01*
X6587997Y3875786D01*
X6617970Y3971289D02*
G01*
X6681470Y3875786D01*
X6681470Y3971289D02*
G01*
X6617970Y3875786D01*
D19*
X1561592Y5691378D02*
G01*
X1551178Y5686044D01*
X1540763Y5675629D01*
X1535684Y5665470D01*
X1535684Y5644642D01*
X1540763Y5634228D01*
X1551178Y5623813D01*
X1561592Y5618479D01*
X1577339Y5613400D01*
X1603247Y5613400D01*
X1618742Y5618479D01*
X1629155Y5623813D01*
X1639570Y5634228D01*
X1644650Y5644642D01*
X1644650Y5665470D01*
X1639570Y5675629D01*
X1629155Y5686044D01*
X1618742Y5691378D01*
X1556512Y5725668D02*
G01*
X1551178Y5736081D01*
X1535684Y5751576D01*
X1644650Y5751576D01*
D20*
X1768094Y5664215D02*
G01*
X1768094Y5582427D01*
X1727200Y5623321D02*
G01*
X1808987Y5623321D01*
D19*
X780287Y4953000D02*
G01*
X785621Y4942586D01*
X801115Y4927092D01*
X692150Y4927092D01*
X775207Y4887468D02*
G01*
X780287Y4887468D01*
X790702Y4882387D01*
X796036Y4877054D01*
X801115Y4866639D01*
X801115Y4846065D01*
X796036Y4835652D01*
X790702Y4830318D01*
X780287Y4825237D01*
X769873Y4825237D01*
X759460Y4830318D01*
X743965Y4840731D01*
X692150Y4892802D01*
X692150Y4819904D01*
X801115Y4785613D02*
G01*
X692150Y4744212D01*
X801115Y4702555D02*
G01*
X692150Y4744212D01*
X1931415Y2070100D02*
G01*
X1822450Y2070100D01*
X1931415Y2070100D02*
G01*
X1931415Y2023363D01*
X1926336Y2007870D01*
X1921002Y2002536D01*
X1910587Y1997455D01*
X1900173Y1997455D01*
X1889760Y2002536D01*
X1884679Y2007870D01*
X1879600Y2023363D01*
X1879600Y2070100D02*
G01*
X1879600Y2023363D01*
X1874265Y2007870D01*
X1869186Y2002536D01*
X1858771Y1997455D01*
X1843023Y1997455D01*
X1832610Y2002536D01*
X1827529Y2007870D01*
X1822450Y2023363D01*
X1822450Y2070100D01*
X1931415Y1963165D02*
G01*
X1822450Y1963165D01*
X1931415Y1963165D02*
G01*
X1822450Y1890268D01*
X1931415Y1890268D02*
G01*
X1822450Y1890268D01*
X1931415Y1819655D02*
G01*
X1822450Y1819655D01*
X1931415Y1855978D02*
G01*
X1931415Y1783334D01*
X1905507Y1743710D02*
G01*
X1910587Y1743710D01*
X1921002Y1738629D01*
X1926336Y1733550D01*
X1931415Y1723136D01*
X1931415Y1702307D01*
X1926336Y1691894D01*
X1921002Y1686560D01*
X1910587Y1681479D01*
X1900173Y1681479D01*
X1889760Y1686560D01*
X1874265Y1696973D01*
X1822450Y1749044D01*
X1822450Y1676400D01*
X787907Y3706621D02*
G01*
X798321Y3711955D01*
X808736Y3722370D01*
X813815Y3732529D01*
X813815Y3753357D01*
X808736Y3763771D01*
X798321Y3774186D01*
X787907Y3779520D01*
X772160Y3784600D01*
X746252Y3784600D01*
X730757Y3779520D01*
X720344Y3774186D01*
X709929Y3763771D01*
X704850Y3753357D01*
X704850Y3732529D01*
X709929Y3722370D01*
X720344Y3711955D01*
X730757Y3706621D01*
X746252Y3706621D01*
X746252Y3732529D02*
G01*
X746252Y3706621D01*
X813815Y3672331D02*
G01*
X704850Y3672331D01*
X813815Y3672331D02*
G01*
X704850Y3599687D01*
X813815Y3599687D02*
G01*
X704850Y3599687D01*
X813815Y3565397D02*
G01*
X704850Y3565397D01*
X813815Y3565397D02*
G01*
X813815Y3529076D01*
X808736Y3513328D01*
X798321Y3502913D01*
X787907Y3497834D01*
X772160Y3492500D01*
X746252Y3492500D01*
X730757Y3497834D01*
X720344Y3502913D01*
X709929Y3513328D01*
X704850Y3529076D01*
X704850Y3565397D01*
X5461000Y2490215D02*
G01*
X5461000Y2381250D01*
X5461000Y2490215D02*
G01*
X5502656Y2381250D01*
X5544058Y2490215D02*
G01*
X5502656Y2381250D01*
X5544058Y2490215D02*
G01*
X5544058Y2381250D01*
X5578347Y2469387D02*
G01*
X5588761Y2474721D01*
X5604509Y2490215D01*
X5604509Y2381250D01*
X3822700Y5995415D02*
G01*
X3822700Y5917437D01*
X3827779Y5901944D01*
X3838193Y5891529D01*
X3853941Y5886450D01*
X3864356Y5886450D01*
X3879850Y5891529D01*
X3890263Y5901944D01*
X3895343Y5917437D01*
X3895343Y5995415D01*
X3981704Y5995415D02*
G01*
X3929634Y5922771D01*
X4007611Y5922771D01*
X3981704Y5995415D02*
G01*
X3981704Y5886450D01*
D20*
X2635758Y5529071D02*
G01*
X2635758Y5432044D01*
X2603500Y5529071D02*
G01*
X2668270Y5529071D01*
X2698750Y5529071D02*
G01*
X2763265Y5432044D01*
X2763265Y5529071D02*
G01*
X2698750Y5432044D01*
X2793745Y5529071D02*
G01*
X2793745Y5432044D01*
X2793745Y5529071D02*
G01*
X2826004Y5529071D01*
X2839974Y5524500D01*
X2849118Y5515355D01*
X2853690Y5505957D01*
X2858515Y5492242D01*
X2858515Y5469128D01*
X2853690Y5455157D01*
X2849118Y5446013D01*
X2839974Y5436870D01*
X2826004Y5432044D01*
X2793745Y5432044D01*
X4882641Y5226557D02*
G01*
X4878070Y5235955D01*
X4868672Y5245100D01*
X4859527Y5249671D01*
X4840986Y5249671D01*
X4831841Y5245100D01*
X4822443Y5235955D01*
X4817872Y5226557D01*
X4813300Y5212842D01*
X4813300Y5189728D01*
X4817872Y5175757D01*
X4822443Y5166613D01*
X4831841Y5157470D01*
X4840986Y5152644D01*
X4859527Y5152644D01*
X4868672Y5157470D01*
X4878070Y5166613D01*
X4882641Y5175757D01*
X4882641Y5189728D01*
X4859527Y5189728D02*
G01*
X4882641Y5189728D01*
X4913122Y5249671D02*
G01*
X4913122Y5152644D01*
X4913122Y5249671D02*
G01*
X4977638Y5152644D01*
X4977638Y5249671D02*
G01*
X4977638Y5152644D01*
X5008118Y5249671D02*
G01*
X5008118Y5152644D01*
X5008118Y5249671D02*
G01*
X5040629Y5249671D01*
X5054345Y5245100D01*
X5063490Y5235955D01*
X5068315Y5226557D01*
X5072888Y5212842D01*
X5072888Y5189728D01*
X5068315Y5175757D01*
X5063490Y5166613D01*
X5054345Y5157470D01*
X5040629Y5152644D01*
X5008118Y5152644D01*
X4868672Y4716271D02*
G01*
X4822443Y4716271D01*
X4817872Y4674870D01*
X4822443Y4679442D01*
X4836413Y4684013D01*
X4850129Y4684013D01*
X4864100Y4679442D01*
X4873243Y4670044D01*
X4878070Y4656328D01*
X4878070Y4646929D01*
X4873243Y4633213D01*
X4864100Y4624070D01*
X4850129Y4619244D01*
X4836413Y4619244D01*
X4822443Y4624070D01*
X4817872Y4628642D01*
X4813300Y4637786D01*
X4908550Y4716271D02*
G01*
X4945379Y4619244D01*
X4982209Y4716271D02*
G01*
X4945379Y4619244D01*
X2603500Y1947671D02*
G01*
X2603500Y1850644D01*
X2603500Y1947671D02*
G01*
X2635758Y1947671D01*
X2649727Y1943100D01*
X2658872Y1933955D01*
X2663443Y1924557D01*
X2668270Y1910842D01*
X2668270Y1887728D01*
X2663443Y1873757D01*
X2658872Y1864613D01*
X2649727Y1855470D01*
X2635758Y1850644D01*
X2603500Y1850644D01*
X2698750Y1929129D02*
G01*
X2707893Y1933955D01*
X2721609Y1947671D01*
X2721609Y1850644D01*
X2756915Y1924557D02*
G01*
X2756915Y1929129D01*
X2761488Y1938528D01*
X2766059Y1943100D01*
X2775204Y1947671D01*
X2793745Y1947671D01*
X2802890Y1943100D01*
X2807715Y1938528D01*
X2812288Y1929129D01*
X2812288Y1919986D01*
X2807715Y1910842D01*
X2798318Y1896871D01*
X2752090Y1850644D01*
X2816859Y1850644D01*
X4813300Y5503671D02*
G01*
X4850129Y5406644D01*
X4887213Y5503671D02*
G01*
X4850129Y5406644D01*
X4917693Y5503671D02*
G01*
X4922265Y5499100D01*
X4926838Y5503671D01*
X4922265Y5508244D01*
X4917693Y5503671D01*
X4922265Y5471413D02*
G01*
X4922265Y5406644D01*
X4957318Y5471413D02*
G01*
X4957318Y5406644D01*
X4957318Y5452871D02*
G01*
X4971288Y5466842D01*
X4980431Y5471413D01*
X4994402Y5471413D01*
X5003545Y5466842D01*
X5008118Y5452871D01*
X5008118Y5406644D01*
X4813300Y1922271D02*
G01*
X4813300Y1825244D01*
X4813300Y1922271D02*
G01*
X4845558Y1922271D01*
X4859527Y1917700D01*
X4868672Y1908555D01*
X4873243Y1899157D01*
X4878070Y1885442D01*
X4878070Y1862328D01*
X4873243Y1848357D01*
X4868672Y1839213D01*
X4859527Y1830070D01*
X4845558Y1825244D01*
X4813300Y1825244D01*
X4908550Y1903729D02*
G01*
X4917693Y1908555D01*
X4931409Y1922271D01*
X4931409Y1825244D01*
X4971288Y1922271D02*
G01*
X5022088Y1922271D01*
X4994402Y1885442D01*
X5008118Y1885442D01*
X5017515Y1880870D01*
X5022088Y1876044D01*
X5026659Y1862328D01*
X5026659Y1852929D01*
X5022088Y1839213D01*
X5012690Y1830070D01*
X4998974Y1825244D01*
X4985004Y1825244D01*
X4971288Y1830070D01*
X4966715Y1834642D01*
X4961890Y1843786D01*
X2672841Y4718557D02*
G01*
X2668270Y4727955D01*
X2658872Y4737100D01*
X2649727Y4741671D01*
X2631186Y4741671D01*
X2622041Y4737100D01*
X2612643Y4727955D01*
X2608072Y4718557D01*
X2603500Y4704842D01*
X2603500Y4681728D01*
X2608072Y4667757D01*
X2612643Y4658613D01*
X2622041Y4649470D01*
X2631186Y4644644D01*
X2649727Y4644644D01*
X2658872Y4649470D01*
X2668270Y4658613D01*
X2672841Y4667757D01*
X2672841Y4681728D01*
X2649727Y4681728D02*
G01*
X2672841Y4681728D01*
X2703322Y4741671D02*
G01*
X2703322Y4644644D01*
X2703322Y4741671D02*
G01*
X2767838Y4644644D01*
X2767838Y4741671D02*
G01*
X2767838Y4644644D01*
X2798318Y4741671D02*
G01*
X2798318Y4644644D01*
X2798318Y4741671D02*
G01*
X2830829Y4741671D01*
X2844545Y4737100D01*
X2853690Y4727955D01*
X2858515Y4718557D01*
X2863088Y4704842D01*
X2863088Y4681728D01*
X2858515Y4667757D01*
X2853690Y4658613D01*
X2844545Y4649470D01*
X2830829Y4644644D01*
X2798318Y4644644D01*
X2603500Y5249671D02*
G01*
X2603500Y5152644D01*
X2603500Y5249671D02*
G01*
X2645156Y5249671D01*
X2658872Y5245100D01*
X2663443Y5240528D01*
X2668270Y5231129D01*
X2668270Y5221986D01*
X2663443Y5212842D01*
X2658872Y5208270D01*
X2645156Y5203444D01*
X2603500Y5203444D01*
X2635758Y5203444D02*
G01*
X2668270Y5152644D01*
X2698750Y5249671D02*
G01*
X2763265Y5152644D01*
X2763265Y5249671D02*
G01*
X2698750Y5152644D01*
X2793745Y5249671D02*
G01*
X2793745Y5152644D01*
X2793745Y5249671D02*
G01*
X2826004Y5249671D01*
X2839974Y5245100D01*
X2849118Y5235955D01*
X2853690Y5226557D01*
X2858515Y5212842D01*
X2858515Y5189728D01*
X2853690Y5175757D01*
X2849118Y5166613D01*
X2839974Y5157470D01*
X2826004Y5152644D01*
X2793745Y5152644D01*
X2603500Y4995671D02*
G01*
X2603500Y4898644D01*
X2603500Y4995671D02*
G01*
X2645156Y4995671D01*
X2658872Y4991100D01*
X2663443Y4986528D01*
X2668270Y4977129D01*
X2668270Y4967986D01*
X2663443Y4958842D01*
X2658872Y4954270D01*
X2645156Y4949444D01*
X2603500Y4949444D01*
X2635758Y4949444D02*
G01*
X2668270Y4898644D01*
X2763265Y4981955D02*
G01*
X2754122Y4991100D01*
X2740152Y4995671D01*
X2721609Y4995671D01*
X2707893Y4991100D01*
X2698750Y4981955D01*
X2698750Y4972557D01*
X2703322Y4963413D01*
X2707893Y4958842D01*
X2717038Y4954270D01*
X2744724Y4944871D01*
X2754122Y4940300D01*
X2758693Y4935728D01*
X2763265Y4926329D01*
X2763265Y4912613D01*
X2754122Y4903470D01*
X2740152Y4898644D01*
X2721609Y4898644D01*
X2707893Y4903470D01*
X2698750Y4912613D01*
X2826004Y4995671D02*
G01*
X2826004Y4898644D01*
X2793745Y4995671D02*
G01*
X2858515Y4995671D01*
X2603500Y4487671D02*
G01*
X2603500Y4390644D01*
X2603500Y4487671D02*
G01*
X2635758Y4487671D01*
X2649727Y4483100D01*
X2658872Y4473955D01*
X2663443Y4464557D01*
X2668270Y4450842D01*
X2668270Y4427728D01*
X2663443Y4413757D01*
X2658872Y4404613D01*
X2649727Y4395470D01*
X2635758Y4390644D01*
X2603500Y4390644D01*
X2703322Y4464557D02*
G01*
X2703322Y4469129D01*
X2707893Y4478528D01*
X2712465Y4483100D01*
X2721609Y4487671D01*
X2740152Y4487671D01*
X2749550Y4483100D01*
X2754122Y4478528D01*
X2758693Y4469129D01*
X2758693Y4459986D01*
X2754122Y4450842D01*
X2744724Y4436871D01*
X2698750Y4390644D01*
X2763265Y4390644D01*
X2603500Y4233671D02*
G01*
X2603500Y4136644D01*
X2603500Y4233671D02*
G01*
X2635758Y4233671D01*
X2649727Y4229100D01*
X2658872Y4219955D01*
X2663443Y4210557D01*
X2668270Y4196842D01*
X2668270Y4173728D01*
X2663443Y4159757D01*
X2658872Y4150613D01*
X2649727Y4141470D01*
X2635758Y4136644D01*
X2603500Y4136644D01*
X2707893Y4233671D02*
G01*
X2758693Y4233671D01*
X2731008Y4196842D01*
X2744724Y4196842D01*
X2754122Y4192270D01*
X2758693Y4187444D01*
X2763265Y4173728D01*
X2763265Y4164329D01*
X2758693Y4150613D01*
X2749550Y4141470D01*
X2735579Y4136644D01*
X2721609Y4136644D01*
X2707893Y4141470D01*
X2703322Y4146042D01*
X2698750Y4155186D01*
X2603500Y3979671D02*
G01*
X2603500Y3882644D01*
X2603500Y3979671D02*
G01*
X2635758Y3979671D01*
X2649727Y3975100D01*
X2658872Y3965955D01*
X2663443Y3956557D01*
X2668270Y3942842D01*
X2668270Y3919728D01*
X2663443Y3905757D01*
X2658872Y3896613D01*
X2649727Y3887470D01*
X2635758Y3882644D01*
X2603500Y3882644D01*
X2744724Y3979671D02*
G01*
X2698750Y3915155D01*
X2767838Y3915155D01*
X2744724Y3979671D02*
G01*
X2744724Y3882644D01*
X2603500Y3751071D02*
G01*
X2603500Y3654044D01*
X2603500Y3751071D02*
G01*
X2635758Y3751071D01*
X2649727Y3746500D01*
X2658872Y3737355D01*
X2663443Y3727957D01*
X2668270Y3714242D01*
X2668270Y3691128D01*
X2663443Y3677157D01*
X2658872Y3668013D01*
X2649727Y3658870D01*
X2635758Y3654044D01*
X2603500Y3654044D01*
X2754122Y3751071D02*
G01*
X2707893Y3751071D01*
X2703322Y3709670D01*
X2707893Y3714242D01*
X2721609Y3718813D01*
X2735579Y3718813D01*
X2749550Y3714242D01*
X2758693Y3704844D01*
X2763265Y3691128D01*
X2763265Y3681729D01*
X2758693Y3668013D01*
X2749550Y3658870D01*
X2735579Y3654044D01*
X2721609Y3654044D01*
X2707893Y3658870D01*
X2703322Y3663442D01*
X2698750Y3672586D01*
X2603500Y3497071D02*
G01*
X2603500Y3400044D01*
X2603500Y3497071D02*
G01*
X2635758Y3497071D01*
X2649727Y3492500D01*
X2658872Y3483355D01*
X2663443Y3473957D01*
X2668270Y3460242D01*
X2668270Y3437128D01*
X2663443Y3423157D01*
X2658872Y3414013D01*
X2649727Y3404870D01*
X2635758Y3400044D01*
X2603500Y3400044D01*
X2754122Y3483355D02*
G01*
X2749550Y3492500D01*
X2735579Y3497071D01*
X2726436Y3497071D01*
X2712465Y3492500D01*
X2703322Y3478529D01*
X2698750Y3455670D01*
X2698750Y3432555D01*
X2703322Y3414013D01*
X2712465Y3404870D01*
X2726436Y3400044D01*
X2731008Y3400044D01*
X2744724Y3404870D01*
X2754122Y3414013D01*
X2758693Y3427729D01*
X2758693Y3432555D01*
X2754122Y3446271D01*
X2744724Y3455670D01*
X2731008Y3460242D01*
X2726436Y3460242D01*
X2712465Y3455670D01*
X2703322Y3446271D01*
X2698750Y3432555D01*
X2603500Y3217671D02*
G01*
X2603500Y3120644D01*
X2603500Y3217671D02*
G01*
X2635758Y3217671D01*
X2649727Y3213100D01*
X2658872Y3203955D01*
X2663443Y3194557D01*
X2668270Y3180842D01*
X2668270Y3157728D01*
X2663443Y3143757D01*
X2658872Y3134613D01*
X2649727Y3125470D01*
X2635758Y3120644D01*
X2603500Y3120644D01*
X2763265Y3217671D02*
G01*
X2717038Y3120644D01*
X2698750Y3217671D02*
G01*
X2763265Y3217671D01*
X2603500Y2989071D02*
G01*
X2603500Y2892044D01*
X2603500Y2989071D02*
G01*
X2635758Y2989071D01*
X2649727Y2984500D01*
X2658872Y2975355D01*
X2663443Y2965957D01*
X2668270Y2952242D01*
X2668270Y2929128D01*
X2663443Y2915157D01*
X2658872Y2906013D01*
X2649727Y2896870D01*
X2635758Y2892044D01*
X2603500Y2892044D01*
X2721609Y2989071D02*
G01*
X2707893Y2984500D01*
X2703322Y2975355D01*
X2703322Y2965957D01*
X2707893Y2956813D01*
X2717038Y2952242D01*
X2735579Y2947670D01*
X2749550Y2942844D01*
X2758693Y2933700D01*
X2763265Y2924555D01*
X2763265Y2910586D01*
X2758693Y2901442D01*
X2754122Y2896870D01*
X2740152Y2892044D01*
X2721609Y2892044D01*
X2707893Y2896870D01*
X2703322Y2901442D01*
X2698750Y2910586D01*
X2698750Y2924555D01*
X2703322Y2933700D01*
X2712465Y2942844D01*
X2726436Y2947670D01*
X2744724Y2952242D01*
X2754122Y2956813D01*
X2758693Y2965957D01*
X2758693Y2975355D01*
X2754122Y2984500D01*
X2740152Y2989071D01*
X2721609Y2989071D01*
X2603500Y2735071D02*
G01*
X2603500Y2638044D01*
X2603500Y2735071D02*
G01*
X2635758Y2735071D01*
X2649727Y2730500D01*
X2658872Y2721355D01*
X2663443Y2711957D01*
X2668270Y2698242D01*
X2668270Y2675128D01*
X2663443Y2661157D01*
X2658872Y2652013D01*
X2649727Y2642870D01*
X2635758Y2638044D01*
X2603500Y2638044D01*
X2758693Y2702813D02*
G01*
X2754122Y2688844D01*
X2744724Y2679700D01*
X2731008Y2675128D01*
X2726436Y2675128D01*
X2712465Y2679700D01*
X2703322Y2688844D01*
X2698750Y2702813D01*
X2698750Y2707386D01*
X2703322Y2721355D01*
X2712465Y2730500D01*
X2726436Y2735071D01*
X2731008Y2735071D01*
X2744724Y2730500D01*
X2754122Y2721355D01*
X2758693Y2702813D01*
X2758693Y2679700D01*
X2754122Y2656586D01*
X2744724Y2642870D01*
X2731008Y2638044D01*
X2721609Y2638044D01*
X2707893Y2642870D01*
X2703322Y2652013D01*
X2603500Y2455671D02*
G01*
X2603500Y2358644D01*
X2603500Y2455671D02*
G01*
X2635758Y2455671D01*
X2649727Y2451100D01*
X2658872Y2441955D01*
X2663443Y2432557D01*
X2668270Y2418842D01*
X2668270Y2395728D01*
X2663443Y2381757D01*
X2658872Y2372613D01*
X2649727Y2363470D01*
X2635758Y2358644D01*
X2603500Y2358644D01*
X2698750Y2437129D02*
G01*
X2707893Y2441955D01*
X2721609Y2455671D01*
X2721609Y2358644D01*
X2780029Y2455671D02*
G01*
X2766059Y2451100D01*
X2756915Y2437129D01*
X2752090Y2414270D01*
X2752090Y2400300D01*
X2756915Y2377186D01*
X2766059Y2363470D01*
X2780029Y2358644D01*
X2789174Y2358644D01*
X2802890Y2363470D01*
X2812288Y2377186D01*
X2816859Y2400300D01*
X2816859Y2414270D01*
X2812288Y2437129D01*
X2802890Y2451100D01*
X2789174Y2455671D01*
X2780029Y2455671D01*
X2603500Y2227071D02*
G01*
X2603500Y2130044D01*
X2603500Y2227071D02*
G01*
X2635758Y2227071D01*
X2649727Y2222500D01*
X2658872Y2213355D01*
X2663443Y2203957D01*
X2668270Y2190242D01*
X2668270Y2167128D01*
X2663443Y2153157D01*
X2658872Y2144013D01*
X2649727Y2134870D01*
X2635758Y2130044D01*
X2603500Y2130044D01*
X2698750Y2208529D02*
G01*
X2707893Y2213355D01*
X2721609Y2227071D01*
X2721609Y2130044D01*
X2752090Y2208529D02*
G01*
X2761488Y2213355D01*
X2775204Y2227071D01*
X2775204Y2130044D01*
X4822443Y2176271D02*
G01*
X4873243Y2176271D01*
X4845558Y2139442D01*
X4859527Y2139442D01*
X4868672Y2134870D01*
X4873243Y2130044D01*
X4878070Y2116328D01*
X4878070Y2106929D01*
X4873243Y2093213D01*
X4864100Y2084070D01*
X4850129Y2079244D01*
X4836413Y2079244D01*
X4822443Y2084070D01*
X4817872Y2088642D01*
X4813300Y2097786D01*
X4908550Y2176271D02*
G01*
X4945379Y2079244D01*
X4982209Y2176271D02*
G01*
X4945379Y2079244D01*
X5022088Y2176271D02*
G01*
X5072888Y2176271D01*
X5045202Y2139442D01*
X5058918Y2139442D01*
X5068315Y2134870D01*
X5072888Y2130044D01*
X5077459Y2116328D01*
X5077459Y2106929D01*
X5072888Y2093213D01*
X5063490Y2084070D01*
X5049774Y2079244D01*
X5035804Y2079244D01*
X5022088Y2084070D01*
X5017515Y2088642D01*
X5012690Y2097786D01*
X4813300Y2455671D02*
G01*
X4813300Y2358644D01*
X4813300Y2455671D02*
G01*
X4854956Y2455671D01*
X4868672Y2451100D01*
X4873243Y2446528D01*
X4878070Y2437129D01*
X4878070Y2427986D01*
X4873243Y2418842D01*
X4868672Y2414270D01*
X4854956Y2409444D01*
X4813300Y2409444D01*
X4845558Y2409444D02*
G01*
X4878070Y2358644D01*
X4908550Y2455671D02*
G01*
X4908550Y2358644D01*
X4908550Y2455671D02*
G01*
X4968493Y2455671D01*
X4908550Y2409444D02*
G01*
X4945379Y2409444D01*
X4908550Y2358644D02*
G01*
X4968493Y2358644D01*
X4998974Y2455671D02*
G01*
X4998974Y2358644D01*
X4998974Y2455671D02*
G01*
X5058918Y2455671D01*
X4998974Y2409444D02*
G01*
X5035804Y2409444D01*
X4850129Y2684271D02*
G01*
X4813300Y2587244D01*
X4850129Y2684271D02*
G01*
X4887213Y2587244D01*
X4827270Y2619755D02*
G01*
X4873243Y2619755D01*
X4945379Y2684271D02*
G01*
X4931409Y2679700D01*
X4922265Y2665729D01*
X4917693Y2642870D01*
X4917693Y2628900D01*
X4922265Y2605786D01*
X4931409Y2592070D01*
X4945379Y2587244D01*
X4954524Y2587244D01*
X4968493Y2592070D01*
X4977638Y2605786D01*
X4982209Y2628900D01*
X4982209Y2642870D01*
X4977638Y2665729D01*
X4968493Y2679700D01*
X4954524Y2684271D01*
X4945379Y2684271D01*
X4850129Y2963671D02*
G01*
X4813300Y2866644D01*
X4850129Y2963671D02*
G01*
X4887213Y2866644D01*
X4827270Y2899155D02*
G01*
X4873243Y2899155D01*
X4917693Y2945129D02*
G01*
X4926838Y2949955D01*
X4940808Y2963671D01*
X4940808Y2866644D01*
X4850129Y3192271D02*
G01*
X4813300Y3095244D01*
X4850129Y3192271D02*
G01*
X4887213Y3095244D01*
X4827270Y3127755D02*
G01*
X4873243Y3127755D01*
X4922265Y3169157D02*
G01*
X4922265Y3173729D01*
X4926838Y3183128D01*
X4931409Y3187700D01*
X4940808Y3192271D01*
X4959350Y3192271D01*
X4968493Y3187700D01*
X4973065Y3183128D01*
X4977638Y3173729D01*
X4977638Y3164586D01*
X4973065Y3155442D01*
X4963922Y3141471D01*
X4917693Y3095244D01*
X4982209Y3095244D01*
X4850129Y3471671D02*
G01*
X4813300Y3374644D01*
X4850129Y3471671D02*
G01*
X4887213Y3374644D01*
X4827270Y3407155D02*
G01*
X4873243Y3407155D01*
X4926838Y3471671D02*
G01*
X4977638Y3471671D01*
X4949952Y3434842D01*
X4963922Y3434842D01*
X4973065Y3430270D01*
X4977638Y3425444D01*
X4982209Y3411728D01*
X4982209Y3402329D01*
X4977638Y3388613D01*
X4968493Y3379470D01*
X4954524Y3374644D01*
X4940808Y3374644D01*
X4926838Y3379470D01*
X4922265Y3384042D01*
X4917693Y3393186D01*
X4850129Y3725671D02*
G01*
X4813300Y3628644D01*
X4850129Y3725671D02*
G01*
X4887213Y3628644D01*
X4827270Y3661155D02*
G01*
X4873243Y3661155D01*
X4963922Y3725671D02*
G01*
X4917693Y3661155D01*
X4987036Y3661155D01*
X4963922Y3725671D02*
G01*
X4963922Y3628644D01*
X4850129Y3979671D02*
G01*
X4813300Y3882644D01*
X4850129Y3979671D02*
G01*
X4887213Y3882644D01*
X4827270Y3915155D02*
G01*
X4873243Y3915155D01*
X4973065Y3979671D02*
G01*
X4926838Y3979671D01*
X4922265Y3938270D01*
X4926838Y3942842D01*
X4940808Y3947413D01*
X4954524Y3947413D01*
X4968493Y3942842D01*
X4977638Y3933444D01*
X4982209Y3919728D01*
X4982209Y3910329D01*
X4977638Y3896613D01*
X4968493Y3887470D01*
X4954524Y3882644D01*
X4940808Y3882644D01*
X4926838Y3887470D01*
X4922265Y3892042D01*
X4917693Y3901186D01*
X4850129Y4208271D02*
G01*
X4813300Y4111244D01*
X4850129Y4208271D02*
G01*
X4887213Y4111244D01*
X4827270Y4143755D02*
G01*
X4873243Y4143755D01*
X4973065Y4194555D02*
G01*
X4968493Y4203700D01*
X4954524Y4208271D01*
X4945379Y4208271D01*
X4931409Y4203700D01*
X4922265Y4189729D01*
X4917693Y4166870D01*
X4917693Y4143755D01*
X4922265Y4125213D01*
X4931409Y4116070D01*
X4945379Y4111244D01*
X4949952Y4111244D01*
X4963922Y4116070D01*
X4973065Y4125213D01*
X4977638Y4138929D01*
X4977638Y4143755D01*
X4973065Y4157471D01*
X4963922Y4166870D01*
X4949952Y4171442D01*
X4945379Y4171442D01*
X4931409Y4166870D01*
X4922265Y4157471D01*
X4917693Y4143755D01*
X4850129Y4487671D02*
G01*
X4813300Y4390644D01*
X4850129Y4487671D02*
G01*
X4887213Y4390644D01*
X4827270Y4423155D02*
G01*
X4873243Y4423155D01*
X4982209Y4487671D02*
G01*
X4936236Y4390644D01*
X4917693Y4487671D02*
G01*
X4982209Y4487671D01*
X4813300Y4995671D02*
G01*
X4813300Y4898644D01*
X4813300Y4995671D02*
G01*
X4854956Y4995671D01*
X4868672Y4991100D01*
X4873243Y4986528D01*
X4878070Y4977129D01*
X4878070Y4967986D01*
X4873243Y4958842D01*
X4868672Y4954270D01*
X4854956Y4949444D01*
X4813300Y4949444D01*
X4845558Y4949444D02*
G01*
X4878070Y4898644D01*
X4973065Y4981955D02*
G01*
X4963922Y4991100D01*
X4949952Y4995671D01*
X4931409Y4995671D01*
X4917693Y4991100D01*
X4908550Y4981955D01*
X4908550Y4972557D01*
X4913122Y4963413D01*
X4917693Y4958842D01*
X4926838Y4954270D01*
X4954524Y4944871D01*
X4963922Y4940300D01*
X4968493Y4935728D01*
X4973065Y4926329D01*
X4973065Y4912613D01*
X4963922Y4903470D01*
X4949952Y4898644D01*
X4931409Y4898644D01*
X4917693Y4903470D01*
X4908550Y4912613D01*
X5035804Y4995671D02*
G01*
X5035804Y4898644D01*
X5003545Y4995671D02*
G01*
X5068315Y4995671D01*
D19*
X6781800Y2477515D02*
G01*
X6781800Y2368550D01*
X6781800Y2477515D02*
G01*
X6823456Y2368550D01*
X6864858Y2477515D02*
G01*
X6823456Y2368550D01*
X6864858Y2477515D02*
G01*
X6864858Y2368550D01*
X6904481Y2451607D02*
G01*
X6904481Y2456687D01*
X6909561Y2467102D01*
X6914895Y2472436D01*
X6925309Y2477515D01*
X6945884Y2477515D01*
X6956297Y2472436D01*
X6961631Y2467102D01*
X6966711Y2456687D01*
X6966711Y2446273D01*
X6961631Y2435860D01*
X6951218Y2420365D01*
X6899147Y2368550D01*
X6972045Y2368550D01*
G36*
X2387600Y5842000D02*
G01*
X2387600Y5384800D01*
X2413000Y5410200D01*
X2463800Y5511800D01*
X2463800Y5689600D01*
X2438400Y5765800D01*
X2413000Y5816600D01*
G37*
D10*
X5410200Y4813300D02*
G01*
X6934200Y4813300D01*
X6934200Y2781300D01*
X5410200Y2781300D01*
X5410200Y4813300D01*
X876300Y5067300D02*
G01*
X876300Y4051300D01*
X1790700Y4051300D01*
X1790700Y5067300D01*
X876300Y5067300D01*
X876300Y4864100D01*
X876300Y2578100D02*
G01*
X876300Y1562100D01*
X1790700Y1562100D01*
X1790700Y2578100D01*
X876300Y2578100D01*
X876300Y2374900D01*
X876300Y3873500D02*
G01*
X876300Y2857500D01*
X1790700Y2857500D01*
X1790700Y3873500D01*
X876300Y3873500D01*
X876300Y3670300D01*
X5041900Y1422400D02*
G01*
X6057900Y1422400D01*
X6057900Y2336800D01*
X5041900Y2336800D01*
X5041900Y1422400D01*
X5245100Y1422400D01*
X2933700Y1536700D02*
G01*
X4711700Y1536700D01*
X4711700Y1536700D02*
G01*
X4711700Y5854700D01*
X4711700Y5854700D02*
G01*
X2933700Y5854700D01*
X2933700Y5854700D02*
G01*
X2933700Y1536700D01*
X3441700Y1917700D02*
G01*
X3441700Y1155700D01*
X4203700Y1155700D01*
X4203700Y1917700D01*
X3441700Y1917700D01*
X6273800Y1422400D02*
G01*
X7289800Y1422400D01*
X7289800Y2336800D01*
X6273800Y2336800D01*
X6273800Y1422400D01*
X6477000Y1422400D01*
G75*
G01
X2476500Y5613400D02*
G03X2476500Y5613400I-393700J0D01*
M02*
