G04 Layer: BottomLayer*
G04 EasyEDA v6.4.19.5, 2021-05-06T20:56:21--4:00*
G04 abff795b53f7494696e4529b8d7fc3de,4cc6b0da07df45819412c628e5a569e9,10*
G04 Gerber Generator version 0.2*
G04 Scale: 100 percent, Rotated: No, Reflected: No *
G04 Dimensions in millimeters *
G04 leading zeros omitted , absolute positions ,4 integer and 5 decimal *
%FSLAX45Y45*%
%MOMM*%

%ADD11C,0.2600*%
%ADD12C,0.6100*%
%ADD13C,1.5240*%
%ADD14R,3.4999X3.4999*%
%ADD15C,3.4999*%
%ADD16R,1.7780X1.7780*%
%ADD17C,1.7780*%

%LPD*%
D11*
X5537200Y2908300D02*
G01*
X5344413Y3101086D01*
X5344413Y3637279D01*
X5504434Y3797300D01*
X5576061Y3797300D01*
X5646674Y3868165D01*
X5646674Y4232655D01*
X5574029Y4305300D01*
X5505704Y4305300D01*
X5338318Y4472686D01*
X5338318Y4694681D01*
X4584700Y5448300D01*
X1905000Y5613400D02*
G01*
X1663700Y5613400D01*
X1326387Y5276087D01*
X1326387Y4813300D01*
X1326387Y4305300D02*
G01*
X1651000Y4305300D01*
X2260600Y4914900D01*
X2260600Y5613400D01*
X3060700Y3416300D02*
G01*
X3949700Y4305300D01*
X3060700Y3670300D02*
G01*
X3441700Y4051300D01*
X3511804Y4051300D01*
X7035800Y1872487D02*
G01*
X5537200Y3371087D01*
X5537200Y3416300D01*
X6527800Y1872487D02*
G01*
X6527800Y2076704D01*
X6527800Y2076704D02*
G01*
X5569204Y3035300D01*
X5514340Y3035300D01*
X5386577Y3163062D01*
X5386577Y3519678D01*
X5537200Y3670300D01*
X5803900Y1872487D02*
G01*
X5301995Y2374137D01*
X5301995Y3689095D01*
X5537200Y3924300D01*
X5295900Y2076704D02*
G01*
X5259831Y2112771D01*
X5259831Y3900931D01*
X5537200Y4178300D01*
X5295900Y1872487D02*
G01*
X5295900Y2076704D01*
X5537200Y3162300D02*
G01*
X5428995Y3270504D01*
X5428995Y3479545D01*
X5510275Y3560826D01*
X5578093Y3560826D01*
X5700268Y3683000D01*
X5700268Y4523231D01*
X5537200Y4686300D01*
D13*
G01*
X5537200Y4686300D03*
G01*
X5537200Y4432300D03*
G01*
X5537200Y4178300D03*
G01*
X5537200Y3924300D03*
G01*
X5537200Y3670300D03*
G01*
X5537200Y3416300D03*
G01*
X5537200Y3162300D03*
G01*
X5537200Y2908300D03*
G01*
X6807200Y2908300D03*
G01*
X6807200Y3162300D03*
G01*
X6807200Y3416300D03*
G01*
X6807200Y3670300D03*
G01*
X6807200Y3924300D03*
G01*
X6807200Y4178300D03*
G01*
X6807200Y4432300D03*
G01*
X6807200Y4686300D03*
G01*
X6299200Y2908300D03*
G01*
X6553200Y2908300D03*
G01*
X6426200Y3086100D03*
G01*
X1905000Y5613400D03*
G01*
X2260600Y5613400D03*
D14*
G01*
X1326311Y4813300D03*
D15*
G01*
X1326286Y4305300D03*
D14*
G01*
X1326311Y2324100D03*
D15*
G01*
X1326286Y1816100D03*
D14*
G01*
X1326311Y3619500D03*
D15*
G01*
X1326286Y3111500D03*
G36*
X5120893Y2047392D02*
G01*
X5470906Y2047392D01*
X5470906Y1697405D01*
X5120893Y1697405D01*
G37*
G01*
X5803900Y1872386D03*
D16*
G01*
X3060700Y5448300D03*
D17*
G01*
X3060700Y5194300D03*
G01*
X3060700Y4940300D03*
G01*
X3060700Y4686300D03*
G01*
X3060700Y4432300D03*
G01*
X3060700Y4178300D03*
G01*
X3060700Y3924300D03*
G01*
X3060700Y3670300D03*
G01*
X3060700Y3416300D03*
G01*
X3060700Y3162300D03*
G01*
X3060700Y2908300D03*
G01*
X3060700Y2654300D03*
G01*
X3060700Y2400300D03*
G01*
X3060700Y2146300D03*
G01*
X3060700Y1892300D03*
G01*
X4584700Y5448300D03*
G01*
X4584700Y5194300D03*
G01*
X4584700Y4940300D03*
G01*
X4584700Y4686300D03*
G01*
X4584700Y4432300D03*
G01*
X4584700Y4178300D03*
G01*
X4584700Y3924300D03*
G01*
X4584700Y3670300D03*
G01*
X4584700Y3416300D03*
G01*
X4584700Y3162300D03*
G01*
X4584700Y2908300D03*
G01*
X4584700Y2654300D03*
G01*
X4584700Y2400300D03*
G01*
X4584700Y2146300D03*
G01*
X4584700Y1892300D03*
G36*
X6352793Y2047392D02*
G01*
X6702806Y2047392D01*
X6702806Y1697405D01*
X6352793Y1697405D01*
G37*
D15*
G01*
X7035800Y1872386D03*
D12*
G01*
X3949700Y4305300D03*
G01*
X3511804Y4051300D03*
M02*
